<svg width="64" height="64" viewBox="0 0 64 64" fill="none" xmlns="http://www.w3.org/2000/svg">
<path d="M59.0901 45.1601L37.5401 25.9101C37.3547 25.7358 37.1097 25.6387 36.8551 25.6387C36.6006 25.6387 36.3556 25.7358 36.1701 25.9101L31.8001 30.3201C31.6228 30.5061 31.5239 30.7532 31.5239 31.0101C31.5239 31.2671 31.6228 31.5142 31.8001 31.7001L51.0001 53.2401C51.5174 53.8235 52.1493 54.2942 52.8564 54.6228C53.5635 54.9514 54.3306 55.1309 55.1101 55.1501H55.2701C56.0148 55.1486 56.7518 54.9993 57.4384 54.7109C58.1251 54.4225 58.7476 54.0008 59.2701 53.4701V53.4701C59.8219 52.9208 60.2556 52.2644 60.5444 51.5414C60.8332 50.8183 60.971 50.0438 60.9495 49.2655C60.9279 48.4871 60.7474 47.7215 60.4191 47.0155C60.0907 46.3095 59.6215 45.6781 59.0401 45.1601H59.0901Z" fill="#07485E"></path>
<path d="M44 19.5701L32.63 8.23012C32.537 8.1364 32.4264 8.062 32.3046 8.01123C32.1827 7.96046 32.052 7.93433 31.92 7.93433C31.788 7.93433 31.6573 7.96046 31.5354 8.01123C31.4135 8.062 31.3029 8.1364 31.21 8.23012L14.08 25.3601C13.9862 25.4531 13.9119 25.5637 13.8611 25.6855C13.8103 25.8074 13.7842 25.9381 13.7842 26.0701C13.7842 26.2021 13.8103 26.3328 13.8611 26.4547C13.9119 26.5766 13.9862 26.6872 14.08 26.7801L25.42 38.1201C25.6062 38.3049 25.8576 38.409 26.12 38.4101C26.2516 38.4109 26.382 38.3857 26.5039 38.3359C26.6257 38.2861 26.7365 38.2128 26.83 38.1201L44 21.0001C44.0952 20.907 44.1709 20.7958 44.2226 20.673C44.2742 20.5502 44.3009 20.4183 44.3009 20.2851C44.3009 20.1519 44.2742 20.02 44.2226 19.8973C44.1709 19.7745 44.0952 19.6633 44 19.5701Z" fill="#FFB454"></path>
<path d="M47.4101 15.4601L36.2201 4.27011C35.4498 3.50312 34.4071 3.07251 33.3201 3.07251C32.2331 3.07251 31.1904 3.50312 30.4201 4.27011L28.8401 5.86011C28.6539 6.04747 28.5493 6.30092 28.5493 6.56511C28.5493 6.82929 28.6539 7.08274 28.8401 7.27011L44.4101 22.8401C44.5031 22.9338 44.6137 23.0082 44.7355 23.059C44.8574 23.1098 44.9881 23.1359 45.1201 23.1359C45.2521 23.1359 45.3828 23.1098 45.5047 23.059C45.6265 23.0082 45.7371 22.9338 45.8301 22.8401L47.4101 21.2601C47.7911 20.8794 48.0933 20.4273 48.2995 19.9297C48.5057 19.4321 48.6118 18.8987 48.6118 18.3601C48.6118 17.8215 48.5057 17.2881 48.2995 16.7905C48.0933 16.2929 47.7911 15.8409 47.4101 15.4601V15.4601Z" fill="#07485E"></path>
<path d="M13.1202 23C12.9328 22.8138 12.6794 22.7092 12.4152 22.7092C12.151 22.7092 11.8975 22.8138 11.7102 23L10.1202 24.58C9.7392 24.9608 9.43698 25.4129 9.23078 25.9105C9.02459 26.408 8.91846 26.9414 8.91846 27.48C8.91846 28.0186 9.02459 28.552 9.23078 29.0496C9.43698 29.5472 9.7392 29.9993 10.1202 30.38L21.3102 41.56C21.6909 41.941 22.143 42.2432 22.6406 42.4494C23.1382 42.6556 23.6716 42.7617 24.2102 42.7617C24.7488 42.7617 25.2822 42.6556 25.7797 42.4494C26.2773 42.2432 26.7294 41.941 27.1102 41.56L28.6902 40C28.7839 39.9071 28.8583 39.7965 28.9091 39.6746C28.9598 39.5527 28.986 39.422 28.986 39.29C28.986 39.158 28.9598 39.0273 28.9091 38.9054C28.8583 38.7836 28.7839 38.673 28.6902 38.58L13.1202 23Z" fill="#07485E"></path>
<path d="M32.3399 49.8501H9.37988C8.8276 49.8501 8.37988 50.2978 8.37988 50.8501V53.9001C8.37988 54.4524 8.8276 54.9001 9.37988 54.9001H32.3399C32.8922 54.9001 33.3399 54.4524 33.3399 53.9001V50.8501C33.3399 50.2978 32.8922 49.8501 32.3399 49.8501Z" fill="#FFD845"></path>
<path d="M37.72 59.0001H35.86V53.9001C35.86 53.6349 35.7546 53.3806 35.5671 53.193C35.3796 53.0055 35.1252 52.9001 34.86 52.9001H6.86C6.59478 52.9001 6.34043 53.0055 6.15289 53.193C5.96536 53.3806 5.86 53.6349 5.86 53.9001V59.0001H4C3.73478 59.0001 3.48043 59.1055 3.29289 59.293C3.10536 59.4806 3 59.7349 3 60.0001C3 60.2654 3.10536 60.5197 3.29289 60.7073C3.48043 60.8948 3.73478 61.0001 4 61.0001H37.72C37.9852 61.0001 38.2396 60.8948 38.4271 60.7073C38.6146 60.5197 38.72 60.2654 38.72 60.0001C38.72 59.7349 38.6146 59.4806 38.4271 59.293C38.2396 59.1055 37.9852 59.0001 37.72 59.0001Z" fill="#FFB454"></path>
<path d="M59.0902 45.1601L38.3302 26.6101L43.2602 21.6901L44.4102 22.8401C44.5031 22.9338 44.6137 23.0082 44.7356 23.059C44.8575 23.1098 44.9882 23.1359 45.1202 23.1359C45.2522 23.1359 45.3829 23.1098 45.5048 23.059C45.6266 23.0082 45.7372 22.9338 45.8302 22.8401L47.4102 21.2601C47.7912 20.8794 48.0934 20.4273 48.2996 19.9297C48.5058 19.4321 48.6119 18.8987 48.6119 18.3601C48.6119 17.8215 48.5058 17.2881 48.2996 16.7905C48.0934 16.2929 47.7912 15.8409 47.4102 15.4601L36.2202 4.27011C35.4499 3.50312 34.4072 3.07251 33.3202 3.07251C32.2332 3.07251 31.1904 3.50312 30.4202 4.27011L28.8402 5.86011C28.6539 6.04747 28.5494 6.30092 28.5494 6.56511C28.5494 6.82929 28.6539 7.08274 28.8402 7.27011L30.5102 8.9401L14.7902 24.6601L13.1202 23.0001C12.9328 22.8139 12.6794 22.7093 12.4152 22.7093C12.151 22.7093 11.8975 22.8139 11.7102 23.0001L10.1202 24.5801C9.7392 24.9609 9.43698 25.4129 9.23078 25.9105C9.02459 26.4081 8.91846 26.9415 8.91846 27.4801C8.91846 28.0187 9.02459 28.5521 9.23078 29.0497C9.43698 29.5473 9.7392 29.9994 10.1202 30.3801L21.3102 41.5601C21.6909 41.9411 22.143 42.2433 22.6406 42.4495C23.1382 42.6557 23.6716 42.7618 24.2102 42.7618C24.7488 42.7618 25.2822 42.6557 25.7797 42.4495C26.2773 42.2433 26.7294 41.9411 27.1102 41.5601L28.6902 40.0001C28.7839 39.9071 28.8583 39.7965 28.9091 39.6747C28.9598 39.5528 28.986 39.4221 28.986 39.2901C28.986 39.1581 28.9598 39.0274 28.9091 38.9055C28.8583 38.7837 28.7839 38.6731 28.6902 38.5801L27.5402 37.4301L32.4602 32.5001L51.0002 53.2401C51.5205 53.8176 52.1527 54.2835 52.8585 54.6093C53.5642 54.9352 54.3288 55.1143 55.1059 55.1358C55.883 55.1574 56.6563 55.0208 57.379 54.7345C58.1017 54.4481 58.7587 54.018 59.3102 53.4701V53.4701C59.8587 52.9193 60.2896 52.2628 60.5768 51.5405C60.8639 50.8182 61.0014 50.045 60.9808 49.268C60.9603 48.4909 60.7821 47.7261 60.4571 47.02C60.1321 46.3139 59.6671 45.6811 59.0902 45.1601V45.1601ZM31.8402 5.69011C32.2416 5.29916 32.7798 5.0804 33.3402 5.0804C33.9005 5.0804 34.4387 5.29916 34.8402 5.69011L46.0002 16.8801C46.1985 17.0763 46.356 17.3099 46.4634 17.5674C46.5709 17.8249 46.6262 18.1011 46.6262 18.3801C46.6262 18.6591 46.5709 18.9353 46.4634 19.1928C46.356 19.4503 46.1985 19.6839 46.0002 19.8801L45.1202 20.7601L31.0002 6.56011L31.8402 5.69011ZM25.6902 40.1501C25.494 40.3484 25.2604 40.5059 25.0029 40.6134C24.7454 40.7208 24.4692 40.7762 24.1902 40.7762C23.9112 40.7762 23.635 40.7208 23.3775 40.6134C23.12 40.5059 22.8864 40.3484 22.6902 40.1501L11.5402 29.0001C11.3437 28.8049 11.1877 28.5728 11.0813 28.317C10.9749 28.0613 10.9202 27.7871 10.9202 27.5101C10.9158 27.2295 10.9685 26.951 11.0751 26.6914C11.1816 26.4318 11.3399 26.1966 11.5402 26.0001L12.4102 25.1201L26.5702 39.2701L25.6902 40.1501ZM16.2002 26.0701L31.9202 10.3501L41.8402 20.2701L26.1202 36.0001L16.2002 26.0701ZM57.9102 52.0701C57.5502 52.4251 57.1222 52.7036 56.6519 52.8889C56.1815 53.0742 55.6785 53.1626 55.1732 53.1485C54.6679 53.1345 54.1706 53.0185 53.7112 52.8074C53.2519 52.5963 52.8399 52.2945 52.5002 51.9201L33.8802 31.0701L36.8802 28.0701L57.7602 46.6501C58.1345 46.9898 58.4364 47.4018 58.6475 47.8611C58.8586 48.3205 58.9746 48.8178 58.9886 49.3231C59.0026 49.8285 58.9143 50.3314 58.729 50.8018C58.5437 51.2721 58.2651 51.7001 57.9102 52.0601V52.0701Z" fill="black"></path>
<path d="M37.72 59.0001H35.86V53.9001C35.86 53.6349 35.7546 53.3806 35.5671 53.193C35.3796 53.0055 35.1252 52.9001 34.86 52.9001H33.34V50.9001C33.34 50.6349 33.2346 50.3806 33.0471 50.193C32.8596 50.0055 32.6052 49.9001 32.34 49.9001H9.34C9.07478 49.9001 8.82043 50.0055 8.63289 50.193C8.44536 50.3806 8.34 50.6349 8.34 50.9001V52.9001H6.86C6.59478 52.9001 6.34043 53.0055 6.15289 53.193C5.96536 53.3806 5.86 53.6349 5.86 53.9001V59.0001H4C3.73478 59.0001 3.48043 59.1055 3.29289 59.293C3.10536 59.4806 3 59.7349 3 60.0001C3 60.2654 3.10536 60.5197 3.29289 60.7073C3.48043 60.8948 3.73478 61.0001 4 61.0001H37.72C37.9852 61.0001 38.2396 60.8948 38.4271 60.7073C38.6146 60.5197 38.72 60.2654 38.72 60.0001C38.72 59.7349 38.6146 59.4806 38.4271 59.293C38.2396 59.1055 37.9852 59.0001 37.72 59.0001ZM10.38 51.8501H31.38V52.8501H10.38V51.8501ZM7.86 59.0001V54.9001H33.86V59.0001H7.86Z" fill="black"></path>
</svg>